# xmcd
#
# Track frame offsets:
#	150
#	17235
#	34275
#	55404
#	73999
#	91932
#	110969
#	134374
#	150905
#
# Disc length: 2236 seconds
#
# Revision: 1
# Processed by: cddbd v1.5.1PL2 Copyright (c) Steve Scherf et al.
# Submitted via: audiograbber 1.83.01
#
DISCID=7e08ba09
DTITLE=Dado Glisic - LJubavi
DYEAR=2005
DGENRE=Pop
TTITLE0=Sto bespuca
TTITLE1=Vise od lazi
TTITLE2=priznaj mi
TTITLE3=Ostavicu ruze
TTITLE4=Disem al nisam ziv
TTITLE5=Kopija
TTITLE6=Dvoje u postelji
TTITLE7=Suzu pustio sam
TTITLE8=Dobar i lud
EXTD=
EXTT0=
EXTT1=
EXTT2=
EXTT3=
EXTT4=
EXTT5=
EXTT6=
EXTT7=
EXTT8=
PLAYORDER=
